<svg xmlns="http://www.w3.org/2000/svg" viewBox="0 0 50 50" enable-background="new 0 0 50 50">
  <path style="text-indent:0;text-align:start;line-height:normal;text-transform:none;block-progression:tb;-inkscape-font-specification:Bitstream Vera Sans" d="M 24.875 3.3125 C 20.18258 3.4179476 17.213416 5.3153925 15.9375 8.25 C 14.722401 11.044728 14.976908 14.561897 15.84375 18.21875 C 15.378281 18.765687 14.997582 19.533484 15.09375 20.6875 L 15.09375 20.71875 L 15.09375 20.75 C 15.260194 21.970588 15.627277 22.827497 16.09375 23.4375 C 16.315518 23.727504 16.632414 23.741658 16.90625 23.90625 C 17.148503 25.270033 17.689857 26.571646 18.3125 27.59375 A 1.0001 1.0001 0 0 0 18.5 28 C 18.5 28 18.602659 28.127213 18.625 28.15625 C 18.937142 28.626123 19.09375 29.276601 19.09375 30 C 19.09375 30.76847 19.08235 31.484771 19 32.28125 C 18.698014 33.03913 17.950103 33.643691 16.75 34.25 C 15.497424 34.882819 13.854772 35.466518 12.1875 36.1875 C 10.520228 36.908482 8.826495 37.77573 7.46875 39.15625 C 6.111005 40.53677 5.1369927 42.444232 5 44.9375 L 4.9375 46 L 6 46 L 44 46 L 45.0625 46 L 45 44.9375 C 44.863107 42.446055 43.913967 40.537516 42.5625 39.15625 C 41.211033 37.774984 39.511883 36.908855 37.84375 36.1875 C 36.175617 35.466145 34.524765 34.885197 33.25 34.25 C 32.014894 33.634564 31.240663 33.003799 30.90625 32.21875 C 30.828737 31.271997 30.8125 30.525505 30.8125 29.6875 C 30.8125 29.150994 30.997748 28.66916 31.3125 28.1875 C 31.3198 28.17714 31.33651 28.1667 31.34375 28.15625 C 31.348368 28.15029 31.40625 28.09375 31.40625 28.09375 A 1.0001 1.0001 0 0 0 31.65625 27.625 C 32.262258 26.585852 32.76414 25.266923 33 23.9375 C 33.311724 23.774287 33.663772 23.754587 33.90625 23.4375 C 34.387755 22.80784 34.669748 21.914027 34.78125 20.6875 C 34.86934 19.630463 34.567276 18.860912 34.09375 18.28125 C 34.614087 16.678163 35.229701 14.117068 35.03125 11.5 C 34.92229 10.063091 34.542308 8.6308269 33.6875 7.4375 C 32.915843 6.3602537 31.663622 5.6201187 30.09375 5.28125 C 29.03533 3.8674576 27.111401 3.3125 24.90625 3.3125 L 24.875 3.3125 z M 24.90625 5.3125 C 24.91874 5.3125 24.92507 5.3124552 24.9375 5.3125 C 26.934359 5.3197 28.209545 5.8815416 28.625 6.59375 L 28.875 7.03125 L 29.375 7.09375 C 30.748239 7.2868617 31.504808 7.8152019 32.0625 8.59375 C 32.620192 9.3722981 32.94021 10.455659 33.03125 11.65625 C 33.21333 14.057432 32.519634 16.876276 32.0625 18.15625 L 31.75 19 L 32.53125 19.40625 C 32.523543 19.434675 32.85239 19.765997 32.8125 20.5 C 32.811 20.51632 32.8141 20.51519 32.8125 20.53125 C 32.72051 21.473313 32.478171 22.002103 32.3125 22.21875 C 32.144005 22.43909 32.060417 22.40625 32.09375 22.40625 L 31.21875 22.40625 L 31.09375 23.28125 C 30.921068 24.576367 30.261774 26.210858 29.6875 27.03125 L 29.65625 27.03125 C 29.598816 27.117401 29.55401 27.220692 29.5 27.3125 C 29.238584 27.618356 28.843484 28.020043 28.28125 28.5 C 27.347853 29.296803 26.111111 30 25 30 C 23.9 30 22.648176 29.260936 21.6875 28.4375 C 20.854347 27.72337 20.359844 27.110141 20.21875 26.9375 C 20.21435 26.9312 20.22315 26.91259 20.21875 26.90625 C 19.629877 26.056559 18.95189 24.561051 18.78125 23.28125 L 18.6875 22.40625 L 17.875 22.40625 C 17.840129 22.389375 17.748015 22.33875 17.65625 22.21875 C 17.478664 21.986522 17.230786 21.451164 17.09375 20.53125 C 17.09205 20.5112 17.09475 20.51956 17.09375 20.5 C 17.09155 20.48438 17.09595 20.4846 17.09375 20.46875 C 17.07772 19.710532 17.548752 19.290415 17.46875 19.34375 L 18.03125 18.9375 L 17.875 18.25 C 16.952145 14.607151 16.807166 11.302893 17.78125 9.0625 C 18.752632 6.8283223 20.722691 5.4141553 24.90625 5.3125 z M 21.09375 30.53125 C 22.148166 31.309451 23.46697 32 25 32 C 26.498358 32 27.785979 31.341906 28.8125 30.59375 C 28.817045 31.203845 28.83655 31.827061 28.90625 32.59375 L 28.90625 32.71875 L 28.96875 32.84375 C 29.145032 33.304041 29.393377 33.696045 29.6875 34.0625 A 1.0001 1.0001 0 0 0 29.65625 34.1875 C 29.65625 34.1875 29.418526 34.842142 28.71875 35.5625 C 28.018974 36.282858 26.934848 37 25 37 C 23.072727 37 21.947753 36.249832 21.21875 35.5 C 20.489747 34.750168 20.25 34.0625 20.25 34.0625 C 20.537743 33.688225 20.777048 33.283829 20.9375 32.8125 L 20.96875 32.71875 L 21 32.625 C 21.084407 31.865344 21.093479 31.183013 21.09375 30.53125 z M 31.25 35.4375 C 31.600241 35.663364 31.965314 35.873931 32.34375 36.0625 C 33.80336 36.789803 35.461883 37.352605 37.03125 38.03125 C 38.600617 38.709895 40.067092 39.481266 41.125 40.5625 C 41.968388 41.424485 42.475983 42.574326 42.75 44 L 7.25 44 C 7.5253473 42.575424 8.0266515 41.425079 8.875 40.5625 C 9.93913 39.48052 11.429772 38.710268 13 38.03125 C 14.570228 37.352232 16.211951 36.792181 17.65625 36.0625 C 18.017325 35.88008 18.384556 35.686837 18.71875 35.46875 C 18.943359 35.872414 19.284265 36.395065 19.78125 36.90625 C 20.802247 37.956418 22.527273 39 25 39 C 27.465152 39 29.156026 37.967142 30.15625 36.9375 C 30.702605 36.375076 31.036021 35.849908 31.25 35.4375 z" color="#000" overflow="visible" enable-background="accumulate" font-family="Bitstream Vera Sans"></path>
</svg>